<svg width="247" height="104" viewBox="0 0 247 104" fill="none" xmlns="http://www.w3.org/2000/svg">
<path d="M25.0722 104C17.566 104 11.6849 102.489 7.42879 99.4682C3.17271 96.4469 1.04467 91.5665 1.04467 84.8268C1.04467 83.4324 1.16075 81.9218 1.3929 80.295C1.70243 77.5836 2.47626 74.175 3.7144 70.0693C2.63103 68.9847 1.74112 67.629 1.04467 66.0022C0.348225 64.2979 0 62.5162 0 60.657C0 58.178 0.851216 55.4279 2.55365 52.4067C4.25608 49.3855 6.57758 47.2551 9.51814 46.0156C10.292 45.7832 11.1819 45.6283 12.1879 45.5508C13.1938 45.4734 13.9677 45.3959 14.5094 45.3184C13.426 42.9169 12.8843 40.2443 12.8843 37.3006C12.8843 32.4201 14.0064 28.1207 16.2505 24.4022C18.572 20.6838 21.5899 17.8175 25.3043 15.8033C29.0961 13.7117 33.0813 12.6659 37.26 12.6659C40.2006 12.6659 42.8316 13.2082 45.1531 14.2927L88.7649 14.1765L79.3314 23.124L71.8207 23.0519L71.8023 23.0517L55.1356 22.8916C56.4511 25.3706 57.1088 28.2369 57.1088 31.4905C57.1088 32.1877 57.0315 33.2335 56.8767 34.6279C56.335 38.8886 54.9034 42.5683 52.5819 45.667C50.2604 48.7657 47.3199 51.1672 43.7602 52.8715C40.278 54.4983 36.5249 55.3117 32.501 55.3117C28.3996 55.3117 24.8787 54.4983 21.9381 52.8715L17.9916 52.7553C16.3666 52.7553 15.2445 52.949 14.6254 53.3363C13.3099 53.5687 12.0331 54.3047 10.795 55.5441C9.55683 56.7061 8.93776 58.2942 8.93776 60.3084C8.93776 61.7803 9.55683 62.7873 10.795 63.3296C12.1105 63.8719 14.0451 64.143 16.5987 64.143L24.7239 63.9106L33.3135 63.6782C40.4327 63.6782 46.1204 65.0726 50.3765 67.8615C54.71 70.6503 56.8767 74.8723 56.8767 80.5274C56.8767 81.1471 56.7993 82.1542 56.6445 83.5486C55.7159 90.7531 52.2337 95.9434 46.1978 99.1196C40.1619 102.373 33.12 104 25.0722 104ZM33.0813 46.7128C37.1826 46.7128 40.5488 45.5121 43.1798 43.1106C45.8883 40.6317 47.5133 37.533 48.055 33.8145C48.1324 33.4272 48.1711 32.8074 48.1711 31.9553C48.1711 28.7791 47.1264 26.2227 45.037 24.286C43.0251 22.2719 40.3167 21.2648 36.9118 21.2648C32.8879 21.2648 29.5217 22.543 26.8133 25.0994C24.1049 27.5784 22.4798 30.7933 21.9381 34.7441C21.8608 35.2089 21.8221 35.8287 21.8221 36.6033C21.8221 39.7795 22.8281 42.2585 24.84 44.0402C26.852 45.822 29.5991 46.7128 33.0813 46.7128ZM25.5365 95.5173C31.5724 95.5173 36.641 94.4715 40.7423 92.3799C44.8436 90.2883 47.1651 87.0734 47.7068 82.7352C47.7842 82.3479 47.8228 81.8443 47.8228 81.2246C47.8228 77.5061 46.1204 75.0659 42.7156 73.9039C39.3107 72.8194 35.2094 72.2771 30.4116 72.2771C28.3997 72.2771 26.8907 72.3158 25.8847 72.3933C25.1109 72.3933 23.9888 72.432 22.5185 72.5095C21.0482 72.5095 18.9202 72.5095 16.1344 72.5095C15.2832 72.5095 13.5421 72.3933 10.911 72.1609L10.2146 80.7598C10.1372 81.6119 10.0985 82.8901 10.0985 84.5944C10.0985 88.0804 11.1045 90.7531 13.1165 92.6123C15.2058 94.549 19.3458 95.5173 25.5365 95.5173Z" fill="#931231"/>
<path d="M132.489 74.2525C124.131 74.2525 117.167 70.9601 111.595 64.3754L117.515 58.2168C119.914 60.7732 122.313 62.6324 124.712 63.7944C127.11 64.9564 129.703 65.5374 132.489 65.5374C136.28 65.5374 139.414 64.6853 141.891 62.981C144.367 61.1993 145.799 58.759 146.185 55.6603L146.302 54.4983C146.302 53.1039 145.915 51.9419 145.141 51.0123C144.367 50.0827 143.284 49.2693 141.891 48.5721C140.498 47.7974 138.138 46.6741 134.81 45.2022C129.471 43.0331 125.563 40.9415 123.087 38.9274C120.688 36.9132 119.488 34.0857 119.488 30.4447C119.488 26.9587 120.339 23.8987 122.042 21.2648C123.744 18.5534 126.066 16.4618 129.006 14.9899C132.024 13.4406 135.352 12.6659 138.989 12.6659C142.162 12.6659 145.257 13.2082 148.275 14.2927C151.293 15.3773 153.614 16.733 155.239 18.3598L150.712 24.9832C147.772 22.5043 144.057 21.2648 139.569 21.2648C136.396 21.2648 133.804 22.0007 131.792 23.4726C129.858 24.9445 128.89 26.8812 128.89 29.2827C128.89 30.5222 129.277 31.6067 130.051 32.5363C130.825 33.4659 131.753 34.2406 132.837 34.8603C133.92 35.4026 135.816 36.3322 138.525 37.6492C144.638 40.2056 149.01 42.6071 151.641 44.8536C154.272 47.0227 155.588 49.9665 155.588 53.6849C155.588 57.7132 154.543 61.2767 152.453 64.3754C150.442 67.4741 147.656 69.9143 144.096 71.6961C140.614 73.4004 136.745 74.2525 132.489 74.2525Z" fill="#931231"/>
<path d="M176.606 74.7173C171.731 74.7173 167.978 73.4004 165.347 70.7665C162.716 68.1326 161.4 64.3367 161.4 59.3788C161.4 57.597 161.478 56.2413 161.633 55.3117L168.829 0H178.115L176.258 14.1765H217.189L204.327 22.7754H200.499H200.185H175.097L170.802 55.7765C170.648 57.1709 170.57 58.0618 170.57 58.4492C170.57 63.2521 172.66 65.6536 176.838 65.6536C178.463 65.6536 179.74 65.4987 180.669 65.1888C181.597 64.879 182.952 64.2592 184.731 63.3296L188.33 71.3475C185.234 73.594 181.327 74.7173 176.606 74.7173Z" fill="#931231"/>
<path fill-rule="evenodd" clip-rule="evenodd" d="M71.7843 47.6425C71.707 48.3397 71.6683 49.4242 71.6683 50.8961C71.6683 60.8119 76.2339 65.7698 85.3651 65.7698C88.6152 65.7698 91.7492 65.2663 94.7671 64.2592C97.7851 63.1747 100.919 61.5091 104.169 59.2626L107.884 66.6994C104.866 68.946 101.267 70.8052 97.0886 72.2771C92.91 73.6715 88.77 74.3687 84.6686 74.3687C77.5494 74.3687 72.0165 72.1609 68.0699 67.7452C64.2008 63.3296 62.2662 57.5196 62.2662 50.3151C62.2662 48.5333 62.3823 46.7128 62.6144 44.8536C63.2372 40.4273 64.4362 36.2017 66.2116 32.1768H76.0999C75.0159 34.1969 74.1191 36.4859 73.4094 39.0436L103.589 38.8112L103.705 37.4168C103.86 36.1773 103.937 35.2864 103.937 34.7441C103.937 30.8708 102.776 27.7333 100.455 25.3318C98.1333 22.8529 95.1928 21.6134 91.6331 21.6134C89.3546 21.6134 87.1793 22.1169 85.1071 23.124H79.3314L71.8207 23.0519C73.6025 20.9439 75.6024 19.1088 77.8202 17.5464C81.9989 14.5251 86.7193 13.0145 91.9814 13.0145C96.0053 13.0145 99.6036 13.9441 102.776 15.8033C106.026 17.6626 108.541 20.2577 110.321 23.5888C112.101 26.8425 112.991 30.5609 112.991 34.7441C112.991 35.5188 112.914 36.7583 112.759 38.4626C112.217 41.5613 111.637 44.6212 111.018 47.6425H71.7843Z" fill="#931231"/>
<path fill-rule="evenodd" clip-rule="evenodd" d="M202.195 70.9989C205.987 73.168 210.32 74.2525 215.195 74.2525C220.458 74.2525 225.333 72.9743 229.821 70.4179C234.387 67.784 238.14 64.1818 241.08 59.6112C244.098 55.0406 245.955 49.889 246.652 44.1564C246.884 42.3747 247 40.6704 247 39.0436C247 34.0082 245.955 29.5151 243.866 25.5642C241.854 21.6134 238.991 18.5534 235.276 16.3844C231.562 14.1378 227.267 13.0145 222.392 13.0145C217.207 13.0145 212.332 14.3315 207.767 16.9654C205.081 18.5414 202.659 20.4781 200.499 22.7754H204.327H215.219C217.382 22.0007 219.696 21.6134 222.16 21.6134C227.035 21.6134 230.866 23.2015 233.651 26.3777C236.515 29.4763 237.946 33.6983 237.946 39.0436C237.946 40.2831 237.83 41.6775 237.598 43.2268C236.747 49.9665 234.27 55.3892 230.169 59.495C226.145 63.6007 221.27 65.6536 215.544 65.6536C210.669 65.6536 206.799 64.1043 203.936 61.0056C201.15 57.8294 199.758 53.6074 199.758 48.3397C199.758 46.4804 199.835 45.086 199.99 44.1564C200.575 39.5778 201.927 35.5846 204.047 32.1768H194.086C192.449 35.6152 191.361 39.3372 190.82 43.343C190.588 44.9698 190.472 46.5966 190.472 48.2235C190.472 53.2588 191.478 57.752 193.489 61.7028C195.579 65.6536 198.481 68.7523 202.195 70.9989Z" fill="#931231"/>
</svg>
